/* XPM */
static char * bullethole_xpm[] = {
"63 63 254 2",
"  	c #000000",
". 	c #666666",
"+ 	c #ABABAB",
"@ 	c #808080",
"# 	c #8C8C8C",
"$ 	c #676767",
"% 	c #525252",
"& 	c #0E0E0E",
"* 	c #9C9C9C",
"= 	c #5C5C5C",
"- 	c #3F3F3F",
"; 	c #131313",
"> 	c #010101",
", 	c #070707",
"' 	c #2C2C2C",
") 	c #121212",
"! 	c #050505",
"~ 	c #3C3C3C",
"{ 	c #838383",
"] 	c #959595",
"^ 	c #262626",
"/ 	c #B1B1B1",
"( 	c #ADADAD",
"_ 	c #6D6D6D",
": 	c #656565",
"< 	c #2D2D2D",
"[ 	c #060606",
"} 	c #040404",
"| 	c #020202",
"1 	c #414141",
"2 	c #252525",
"3 	c #0F0F0F",
"4 	c #101010",
"5 	c #161616",
"6 	c #545454",
"7 	c #3E3E3E",
"8 	c #090909",
"9 	c #030303",
"0 	c #111111",
"a 	c #141414",
"b 	c #151515",
"c 	c #333333",
"d 	c #A0A0A0",
"e 	c #9F9F9F",
"f 	c #B3B3B3",
"g 	c #737373",
"h 	c #4D4D4D",
"i 	c #0C0C0C",
"j 	c #5E5E5E",
"k 	c #868686",
"l 	c #171717",
"m 	c #181818",
"n 	c #191919",
"o 	c #7C7C7C",
"p 	c #1C1C1C",
"q 	c #353535",
"r 	c #585858",
"s 	c #1B1B1B",
"t 	c #1A1A1A",
"u 	c #646464",
"v 	c #535353",
"w 	c #0A0A0A",
"x 	c #1E1E1E",
"y 	c #1F1F1F",
"z 	c #1D1D1D",
"A 	c #222222",
"B 	c #232323",
"C 	c #242424",
"D 	c #272727",
"E 	c #282828",
"F 	c #2A2A2A",
"G 	c #292929",
"H 	c #212121",
"I 	c #202020",
"J 	c #AEAEAE",
"K 	c #B5B5B5",
"L 	c #2B2B2B",
"M 	c #2F2F2F",
"N 	c #313131",
"O 	c #343434",
"P 	c #363636",
"Q 	c #383838",
"R 	c #393939",
"S 	c #373737",
"T 	c #AFAFAF",
"U 	c #2E2E2E",
"V 	c #303030",
"W 	c #323232",
"X 	c #3A3A3A",
"Y 	c #444444",
"Z 	c #494949",
"` 	c #4C4C4C",
" .	c #4B4B4B",
"..	c #454545",
"+.	c #3D3D3D",
"@.	c #3B3B3B",
"#.	c #424242",
"$.	c #4A4A4A",
"%.	c #515151",
"&.	c #575757",
"*.	c #5D5D5D",
"=.	c #616161",
"-.	c #626262",
";.	c #5F5F5F",
">.	c #909090",
",.	c #939393",
"'.	c #474747",
").	c #4E4E4E",
"!.	c #464646",
"~.	c #484848",
"{.	c #595959",
"].	c #606060",
"^.	c #6A6A6A",
"/.	c #6E6E6E",
"(.	c #6B6B6B",
"_.	c #565656",
":.	c #404040",
"<.	c #555555",
"[.	c #5B5B5B",
"}.	c #5A5A5A",
"|.	c #4F4F4F",
"1.	c #707070",
"2.	c #686868",
"3.	c #696969",
"4.	c #6C6C6C",
"5.	c #505050",
"6.	c #6F6F6F",
"7.	c #717171",
"8.	c #757575",
"9.	c #636363",
"0.	c #434343",
"a.	c #949494",
"b.	c #777777",
"c.	c #7B7B7B",
"d.	c #363536",
"e.	c #333132",
"f.	c #312F30",
"g.	c #302F2F",
"h.	c #302F30",
"i.	c #323031",
"j.	c #343333",
"k.	c #797979",
"l.	c #7D7D7D",
"m.	c #3E3D3E",
"n.	c #373636",
"o.	c #323131",
"p.	c #2F2D2E",
"q.	c #2D2B2C",
"r.	c #2B292A",
"s.	c #2C2A2B",
"t.	c #2E2C2D",
"u.	c #393839",
"v.	c #787878",
"w.	c #515050",
"x.	c #3A3839",
"y.	c #282727",
"z.	c #272626",
"A.	c #2A2829",
"B.	c #292728",
"C.	c #343233",
"D.	c #403F3F",
"E.	c #ACACAC",
"F.	c #7A7A7A",
"G.	c #373536",
"H.	c #282627",
"I.	c #2D2C2C",
"J.	c #2A292A",
"K.	c #121112",
"L.	c #878787",
"M.	c #747474",
"N.	c #727272",
"O.	c #414040",
"P.	c #2B2A2B",
"Q.	c #272526",
"R.	c #2F2E2F",
"S.	c #191819",
"T.	c #969696",
"U.	c #8E8E8E",
"V.	c #383637",
"W.	c #302E2F",
"X.	c #121111",
"Y.	c #080707",
"Z.	c #333232",
"`.	c #080808",
" +	c #090708",
".+	c #080708",
"++	c #232122",
"@+	c #767676",
"#+	c #B2B2B2",
"$+	c #0D0D0D",
"%+	c #B0B0B0",
"&+	c #090808",
"*+	c #0A0708",
"=+	c #7E7E7E",
"-+	c #888888",
";+	c #858585",
">+	c #8B8B8B",
",+	c #919191",
"'+	c #848484",
")+	c #9D9D9D",
"!+	c #A3A3A3",
"~+	c #A7A7A7",
"{+	c #7F7F7F",
"]+	c #B7B7B7",
"^+	c #828282",
"/+	c #C1C1C1",
"(+	c #B6B6B6",
"_+	c #9E9E9E",
":+	c #898989",
"<+	c #C8C8C8",
"[+	c #CECECE",
"}+	c #C9C9C9",
"|+	c #B4B4B4",
"1+	c #999999",
"2+	c #8F8F8F",
"3+	c #D3D3D3",
"4+	c #C5C5C5",
"5+	c #8A8A8A",
"6+	c #DADADA",
"7+	c #BBBBBB",
"8+	c #818181",
"9+	c #989898",
"0+	c #D9D9D9",
"a+	c #C3C3C3",
"b+	c #8D8D8D",
"c+	c #A2A2A2",
"d+	c #DCDCDC",
"e+	c #D5D5D5",
"f+	c #C7C7C7",
"g+	c #9B9B9B",
"h+	c #A4A4A4",
"i+	c #B9B9B9",
"j+	c #DBDBDB",
"k+	c #D4D4D4",
"l+	c #A9A9A9",
"m+	c #C6C6C6",
"n+	c #D7D7D7",
"o+	c #A8A8A8",
"p+	c #BDBDBD",
"q+	c #CACACA",
"r+	c #CBCBCB",
"s+	c #C4C4C4",
"t+	c #BABABA",
"u+	c #AAAAAA",
"v+	c #9A9A9A",
"w+	c #BCBCBC",
"x+	c #A6A6A6",
"y+	c #0B0B0B",
"z+	c #4B4C4C",
"A+	c #2C2E2D",
"B+	c #323333",
"C+	c #353736",
"D+	c #1C1D1D",
"E+	c #979797",
"                                                                                                                              ",
"                                                                                                                              ",
"                                      .                                                     + @ #                             ",
"                                  $ % & *                                             = - ; > > > , ' ) ! > ~ { ]             ",
"                                  ~ & & ^ / ( _ :                                   < [ } | > > > > 1                         ",
"                                  2 & & & 3 4 ; ; 5 6                               7 8 , ! 9 > | {                           ",
"                                  & & 3 4 0 a b 5 5 5 c     d e       f g           h 3 i 8 [ 9 j                             ",
"                                k & 3 0 a 5 l l m n m m o c p p q r s t s ~ u = v c m 5 ; & w ;                               ",
"                                + 0 a t x y y x z x x y A B C 2 2 2 2 D E F F G ^ B H I p b 4 J                               ",
"                                K s x H B ^ ^ ^ ^ ^ E F L ' < < ' < M N O P Q R S O N < 2 z :                                 ",
"                                T z I ^ G U M V V N W O c W W W N W q X - Y Z ` h  ...X V %                                   ",
"                                7 y ^ ' c R ~ +.+.+.+.~ @.X R R X +.#.$.%.&.*.=.-.;.&.$.~ >.                                  ",
"                              ,.s A L O 7 '.` ).h `  .Z '.!...!.~.` % {.].. ^._ /.(.: r ~._.                                  ",
"                              B H F O :. .<.[.j ;.j }.&.% |.h h ).%.<.[.=.. ^./.1.1.(.].% 1 O 2.                              ",
"                            ' y E c :.h {.-.3._ 4.2.].{.% h Z '.~.Z ` 5.<.}.=.2./.6._ : {.Z R F -.                            ",
"                          &.z D W :.|.= 3.7.8.g 4.9.r ).!.:.+.@.X @.~ - 0.Z %.}.9.^.4.$ *.5.:.N B a.                          ",
"                        + m C N :.5.]._ b.c.b./.-._. .#.@.d.e.f.g.h.i.j.S ~ Y ` _.].: . =._.'.Q G q                           ",
"                          :.' ~ ).;.6.k.l.k./.].v ~.m.n.o.p.q.r.r.r.s.t.h.c u.:.$.v [.].].r ` +.U C                           ",
"                          7 c !.}.(.v.l.k._ ;.w.0.x.i.t.r.y.z.A.s.s.A.B.r.p.C.u.D.Z %.{.= r 5.#.c 2 e                         ",
"                    E.g ^ E X ).-.7.F.k./.;.|.1 G.p.A.H.p.U C s l m z ^ N W f.G.+.0.$.%.&.&.%.!.Q G e                         ",
"                    W 0 z < :.6 $ 8.v.1.].|.- c s.H.I.J.K.[ ! ! ! ! ! ! ! l q ~ 7 Y ~.h % 6 % Z ~ U /.                        ",
"                      L.V V ..{.(.M.N.: v O.j.P.Q.R.S., [ [ [ [ ! ! ! ! ! ! [ ^ $.$.h |.5.v % ` 1 c ^ T.                      ",
"                        U.O Z *.4.N.^.}.'.V.q.z.W.X.Y., , [ [ [ [ [ [ ! ! ! ! ! z <.6 6 v v v |.!.Q F D                       ",
"                        <.Q h ]._ 6.u % - Z.s.i.; `. +.+, , [ [ [ [ [ [ ! ! ! ! ! ^ =.*.}.&._.% $.7 M A 6                     ",
"                      % G @.5.9._ (.;.` ~ C.i.++`.`.`.`.Y., , [ [ [ [ [ ! ! ! ! } } '.$ 9.*.{.&.|.Y q D s @+>.                ",
"                #+  1.z ' - v : /.^.[.$.7 q S 8  + +`.`. +, , , , [ [ [ [ ! ! ! } } 3 /.4.. ;.}.6 $.~ ' y a $+]               ",
"              %+, 1 a y M #.&.$ /.^.}.$.:.~ 2 , Y..+`.&+*+, , , , , [ [ [ ! ! ! } } } ).8.1.$ ;.r |.1 W B l 3 `.              ",
"              b.[ $+b A W !.}.3.6.^.[.h !.!.4 , , , , , , , , , , , , [ [ ! ! ! } } } F =+F.1.: *.v !.P D t 4 8               ",
"              N., & l C q Z *.4.7.(.j v ` ~.[ [ , , , , , , , , , , , , [ [ ! ! ! } } 3 -+;+k.4.-.&.Z R G p 0 w               ",
"                `.3 m ^ S ` ;./.M./.-.{.<...[ [ [ [ , , , , , .+ +.+, , [ [ ! ! ! } } ! >+,+'+g . }.` @.F p ) $+              ",
"                8 3 n E R h ].6.@+N.3.-.;.~.! ! [ [ [ [ , , , .+ + +, , [ [ ! ! } } } } >.)+U.k.3.= ` @.F p ) B               ",
"                p 4 t E X ).=.6.v.@+1.(.3.<.! ! ! ! [ [ [ , , , Y.Y., , [ ! ! } } } } ! !+~+T.{+4.*.` @.F s 0 '               ",
"                1 0 t G X h ].6.k.F.8.N.7.^.} } ! ! ! ! [ [ , , , , [ [ ! ! } } } } } b ]+%+* ^+_ = $.Q D t 4 U               ",
"                / 4 n E X ` j /.k.o F.k.k.c.5 } } } ! ! ! ! [ [ [ [ [ ! ! } } } 9 9 9 #./+(+_+{ _ }.'.q C l 0 =+              ",
"                  z m D Q $.= (.b.l.l.l.{+^+#.} } } ! ! ! ! ! ! ! ! ! ! } } } 9 9 9 9 :+<+]+_+^+(.&.0.N H b                   ",
"                  4 b ^ q '.r $ M.o =+@ { L.o 8 } } } ! ! } } } } } } } } 9 9 9 9 | z [+}+|+1+=+$ % 7 ' z M                   ",
"                @+4 ; B W 0.6 -.6.k.l.@ '+:+2+` } } } } } } } } } } 9 9 9 9 9 | | 9 a.3+4+( >.b.=.` Q D n 9.                  ",
"                G 4 0 I U 7 ).*.3.M.F.{+'+5+,+T.F ! } } } } } } 9 9 9 9 9 9 | | | [.6+[+7+d ;+/.{...W A 5 v.                  ",
"              k 4 4 4 p G Q '._.-._ @+c.8+:+>.1+9+D ! } } } } 9 9 9 9 9 9 | | | h 0+3+a++ ,+v.u 5.+.L z ) c.                  ",
"            o ~ 0 4 4 m 2 W 1 ).[.: 6.8.o '+b+T.d c+..! } } 9 9 9 9 9 9 | | [ N.d+e+f+#+1+{+^.{.'.q 2 m 3 9+                  ",
"                  4 4 ; y L R !.% = : _ M.l.k ,+g+h+T 5+O ! 9 9 9 9 | | , ` i+j+k+<+K * { /.*.h ~ ' y a z K                   ",
"                  b 4 4 n C V ~ ~.% [.9.^.N.c.L.,.)+~+/ i+l+F.}.$.h -.# m+n+k+[+a+#+* '+6.;.%.1 W 2 n 4                       ",
"                    r 4 ) p D W +.!.|.&.j : /.v.;+,+_+o+%+]+p+/+4+f+q+r+r+}+s+t+u+T.@ _ *.%.0.P G z a 9.                      ",
"                      H 4 0 x D V X 1 Z 5.r j 2.g @ U.v+h+E./ (+i+7+w+7+i+f l+* :+b.. {.).#.P F y 5 =.                        ",
"                      p 4 4 5 x 2 ' c X 1 ~.|._.j ^.@+{ 2+9+e h+x+~+x+c+* ,.k k.^.= %.'.+.c G y l 2                           ",
"                      ) 4 4 4 b s H ^ F M P +.Y  .v *.2.g o '+-+5+5+L.8+k.6.u {.5.'.7 P U ^ x l 4 9.                          ",
"                    0.4 4 4 & & ; m s x H C G V Q :.~.5.{.].: ^.(.(.$ -.[.% $.0.~ 7 c ^ H s b 4 w 4.                          ",
"                    ,.0 4 4 i y+4 a b 5 - 1 m z D N @.#.Z z+).5.v % 5. ...- Q N F ^.  < 5 0 $+8 [ 1                           ",
"                      + 8+N.Z E m 4 @       E b p C A+B+q C+R @.~ ~ @.S W < D A z -+  E.& w `.! } s                           ",
"                                            ;.a l t D+x x y H C ^ D E D B y s 5 ) '+    E+, } 9 | >                           ",
"                                                6.m @+  $.N.H 5 m t s t m a 4 $+y+8+        P > > >                           ",
"                                                            C 0 0 ) ) 0 3 i w `.[ ~.        u+| > >                           ",
"                                                          c+4 4 4 4 3 y+8 , [ ! } } |+        v+! > &.                        ",
"                                                          = L.h+q 4 4 3 [ } } } } } Y             0.l '+                      ",
"                                                                6.4 4 4 & 8+t } } } 5                 *.8.+                   ",
"                                                                o 4 4 4 S     b } } a                                         ",
"                                                                :.L '+l+        $+} <                                         ",
"                                                              L.X                 l )                                         ",
"                                                                                    }                                         ",
"                                                                                    z @.                                      ",
"                                                                                    u+i 1.                                    ",
"                                                                                      ~+d                                     ",
"                                                                                                                              "};
