/* XPM */
static char * bullethole_xpm[] = {
"63 63 289 2",
"  	c #FFFFFF",
". 	c #F5F5F5",
"+ 	c #666666",
"@ 	c #F4F4F4",
"# 	c #F7F7F7",
"$ 	c #ABABAB",
"% 	c #808080",
"& 	c #8C8C8C",
"* 	c #E0E0E0",
"= 	c #FEFEFE",
"- 	c #FDFDFD",
"; 	c #D2D2D2",
"> 	c #BBBBBB",
", 	c #D7D7D7",
"' 	c #F1F1F1",
") 	c #676767",
"! 	c #525252",
"~ 	c #0E0E0E",
"{ 	c #9C9C9C",
"] 	c #C0C0C0",
"^ 	c #5C5C5C",
"/ 	c #3F3F3F",
"( 	c #131313",
"_ 	c #010101",
": 	c #070707",
"< 	c #2C2C2C",
"[ 	c #121212",
"} 	c #050505",
"| 	c #3C3C3C",
"1 	c #838383",
"2 	c #959595",
"3 	c #262626",
"4 	c #B1B1B1",
"5 	c #ADADAD",
"6 	c #6D6D6D",
"7 	c #656565",
"8 	c #DADADA",
"9 	c #2D2D2D",
"0 	c #060606",
"a 	c #040404",
"b 	c #020202",
"c 	c #414141",
"d 	c #D0D0D0",
"e 	c #F9F9F9",
"f 	c #E7E7E7",
"g 	c #FCFCFC",
"h 	c #252525",
"i 	c #0F0F0F",
"j 	c #101010",
"k 	c #161616",
"l 	c #545454",
"m 	c #DEDEDE",
"n 	c #3E3E3E",
"o 	c #090909",
"p 	c #030303",
"q 	c #111111",
"r 	c #141414",
"s 	c #151515",
"t 	c #333333",
"u 	c #FBFBFB",
"v 	c #FAFAFA",
"w 	c #A0A0A0",
"x 	c #9F9F9F",
"y 	c #D4D4D4",
"z 	c #B3B3B3",
"A 	c #737373",
"B 	c #4D4D4D",
"C 	c #0C0C0C",
"D 	c #5E5E5E",
"E 	c #868686",
"F 	c #171717",
"G 	c #181818",
"H 	c #191919",
"I 	c #7C7C7C",
"J 	c #1C1C1C",
"K 	c #353535",
"L 	c #585858",
"M 	c #1B1B1B",
"N 	c #1A1A1A",
"O 	c #646464",
"P 	c #535353",
"Q 	c #0A0A0A",
"R 	c #BFBFBF",
"S 	c #1E1E1E",
"T 	c #1F1F1F",
"U 	c #1D1D1D",
"V 	c #222222",
"W 	c #232323",
"X 	c #242424",
"Y 	c #272727",
"Z 	c #282828",
"` 	c #2A2A2A",
" .	c #292929",
"..	c #212121",
"+.	c #202020",
"@.	c #AEAEAE",
"#.	c #B5B5B5",
"$.	c #2B2B2B",
"%.	c #2F2F2F",
"&.	c #313131",
"*.	c #343434",
"=.	c #363636",
"-.	c #383838",
";.	c #393939",
">.	c #373737",
",.	c #AFAFAF",
"'.	c #2E2E2E",
").	c #303030",
"!.	c #323232",
"~.	c #3A3A3A",
"{.	c #444444",
"].	c #494949",
"^.	c #4C4C4C",
"/.	c #4B4B4B",
"(.	c #454545",
"_.	c #F8F8F8",
":.	c #3D3D3D",
"<.	c #3B3B3B",
"[.	c #424242",
"}.	c #4A4A4A",
"|.	c #515151",
"1.	c #575757",
"2.	c #5D5D5D",
"3.	c #616161",
"4.	c #626262",
"5.	c #5F5F5F",
"6.	c #909090",
"7.	c #939393",
"8.	c #474747",
"9.	c #4E4E4E",
"0.	c #464646",
"a.	c #484848",
"b.	c #595959",
"c.	c #606060",
"d.	c #6A6A6A",
"e.	c #6E6E6E",
"f.	c #6B6B6B",
"g.	c #565656",
"h.	c #E3E3E3",
"i.	c #C8C8C8",
"j.	c #404040",
"k.	c #555555",
"l.	c #5B5B5B",
"m.	c #5A5A5A",
"n.	c #4F4F4F",
"o.	c #707070",
"p.	c #686868",
"q.	c #EFEFEF",
"r.	c #EAEAEA",
"s.	c #696969",
"t.	c #6C6C6C",
"u.	c #505050",
"v.	c #6F6F6F",
"w.	c #717171",
"x.	c #757575",
"y.	c #636363",
"z.	c #434343",
"A.	c #949494",
"B.	c #777777",
"C.	c #7B7B7B",
"D.	c #363536",
"E.	c #333132",
"F.	c #312F30",
"G.	c #302F2F",
"H.	c #302F30",
"I.	c #323031",
"J.	c #343333",
"K.	c #797979",
"L.	c #7D7D7D",
"M.	c #3E3D3E",
"N.	c #373636",
"O.	c #323131",
"P.	c #2F2D2E",
"Q.	c #2D2B2C",
"R.	c #2B292A",
"S.	c #2C2A2B",
"T.	c #2E2C2D",
"U.	c #393839",
"V.	c #EBEBEB",
"W.	c #787878",
"X.	c #515050",
"Y.	c #3A3839",
"Z.	c #282727",
"`.	c #272626",
" +	c #2A2829",
".+	c #292728",
"++	c #343233",
"@+	c #403F3F",
"#+	c #ACACAC",
"$+	c #7A7A7A",
"%+	c #373536",
"&+	c #282627",
"*+	c #2D2C2C",
"=+	c #2A292A",
"-+	c #121112",
";+	c #878787",
">+	c #747474",
",+	c #727272",
"'+	c #414040",
")+	c #2B2A2B",
"!+	c #272526",
"~+	c #2F2E2F",
"{+	c #191819",
"]+	c #969696",
"^+	c #8E8E8E",
"/+	c #383637",
"(+	c #302E2F",
"_+	c #121111",
":+	c #080707",
"<+	c #D6D6D6",
"[+	c #333232",
"}+	c #080808",
"|+	c #090708",
"1+	c #080708",
"2+	c #232122",
"3+	c #767676",
"4+	c #E4E4E4",
"5+	c #B2B2B2",
"6+	c #0D0D0D",
"7+	c #B0B0B0",
"8+	c #090808",
"9+	c #0A0708",
"0+	c #7E7E7E",
"a+	c #DBDBDB",
"b+	c #888888",
"c+	c #858585",
"d+	c #C1C1C1",
"e+	c #8B8B8B",
"f+	c #919191",
"g+	c #848484",
"h+	c #9D9D9D",
"i+	c #A3A3A3",
"j+	c #A7A7A7",
"k+	c #7F7F7F",
"l+	c #B7B7B7",
"m+	c #828282",
"n+	c #B6B6B6",
"o+	c #9E9E9E",
"p+	c #898989",
"q+	c #C3C3C3",
"r+	c #C7C7C7",
"s+	c #CECECE",
"t+	c #C9C9C9",
"u+	c #B4B4B4",
"v+	c #999999",
"w+	c #8F8F8F",
"x+	c #D3D3D3",
"y+	c #C5C5C5",
"z+	c #8A8A8A",
"A+	c #818181",
"B+	c #989898",
"C+	c #D9D9D9",
"D+	c #8D8D8D",
"E+	c #A2A2A2",
"F+	c #DCDCDC",
"G+	c #D5D5D5",
"H+	c #9B9B9B",
"I+	c #A4A4A4",
"J+	c #B9B9B9",
"K+	c #A9A9A9",
"L+	c #C6C6C6",
"M+	c #CCCCCC",
"N+	c #CFCFCF",
"O+	c #A8A8A8",
"P+	c #BDBDBD",
"Q+	c #CACACA",
"R+	c #CBCBCB",
"S+	c #C4C4C4",
"T+	c #BABABA",
"U+	c #AAAAAA",
"V+	c #9A9A9A",
"W+	c #BCBCBC",
"X+	c #A6A6A6",
"Y+	c #BEBEBE",
"Z+	c #0B0B0B",
"`+	c #4B4C4C",
" @	c #D8D8D8",
".@	c #2C2E2D",
"+@	c #323333",
"@@	c #353736",
"#@	c #1C1D1D",
"$@	c #979797",
"%@	c #B8B8B8",
"&@	c #E5E5E5",
"*@	c #D1D1D1",
"=@	c #F3F3F3",
"-@	c #E1E1E1",
";@	c #EEEEEE",
">@	c #E8E8E8",
"                                                                                                                              ",
"                                                                                                                              ",
"                                    . + @                                                 # $ % & * = - ; > , '               ",
"                                = ) ! ~ {       =                                   ] ^ / ( _ _ _ : < [ } _ | 1 2 =           ",
"                                  | ~ ~ 3 4 5 6 7 8 -                               9 0 a b _ _ _ _ c d e f g                 ",
"                                g h ~ ~ ~ i j ( ( k l m                             n o : } p _ b 1 -                         ",
"                                * ~ ~ i j q r s k k k t u v w x .   y z A *       u B i C o 0 p D =                           ",
"                                E ~ i q r k F F G H G G I t J J K L M N M | O ^ P t G k ( ~ Q ( R                             ",
"                                $ q r N S T T S U S S T V W X h h h h Y Z ` `  .3 W ..+.J s j @.                              ",
"                                #.M S ..W 3 3 3 3 3 Z ` $.< 9 9 < 9 %.&.*.=.-.;.>.*.&.9 h U 7 =                               ",
"                                ,.U +.3  .'.%.).).&.!.*.t !.!.!.&.!.K ~./ {.].^.B /.(.~.).! -                                 ",
"                              _.n T 3 < t ;.| :.:.:.:.| <.~.;.;.~.:.[.}.|.1.2.3.4.5.1.}.| 6.                                  ",
"                              7.M V $.*.n 8.^.9.B ^./.].8.0.(.0.a.^.! b.c.+ d.6 e.f.7 L a.g.h.=                               ",
"                            i.W ..` *.j./.k.l.D 5.D m.1.! n.B B 9.|.k.l.3.+ d.e.o.o.f.c.! c *.p.q.                            ",
"                          r.< T Z t j.B b.4.s.6 t.p.c.b.! B ].8.a.].^.u.k.m.3.p.e.v.6 7 b.].;.` 4.g                           ",
"                        = 1.U Y !.j.n.^ s.w.x.A t.y.L 9.0.j.:.<.~.<.| / z.].|.m.y.d.t.) 2.u.j.&.W A.=                         ",
"                        $ G X &.j.u.c.6 B.C.B.e.4.g./.[.<.D.E.F.G.H.I.J.>.| {.^.g.c.7 + 3.g.8.-. .K =                         ",
"                        g j.< | 9.5.v.K.L.K.e.c.P a.M.N.O.P.Q.R.R.R.S.T.H.t U.j.}.P l.c.c.L ^.:.'.X V.                        ",
"                        f n t 0.m.f.W.L.K.6 5.X.z.Y.I.T.R.Z.`. +S.S. +.+R.P.++U.@+].|.b.^ L u.[.t h x                         ",
"                  = #+A 3 Z ~.9.4.w.$+K.e.5.n.c %+P. +&+P.'.X M F G U 3 &.!.F.%+:.z.}.|.1.1.|.0.-. .x                         ",
"                  - !.q U 9 j.l ) x.W.o.c.n./ t S.&+*+=+-+0 } } } } } } } F K | n {.a.B ! l ! ].| '.e.                        ",
"                    q.;+).).(.b.f.>+,+7 P '+J.)+!+~+{+: 0 0 0 0 } } } } } } 0 3 }.}.B n.u.P ! ^.c t 3 ]+=                     ",
"                        ^+*.].2.t.,+d.m.8./+Q.`.(+_+:+: : 0 0 0 0 0 0 } } } } } U k.l l P P P n.0.-.` Y <+                    ",
"                      ' k.-.B c.6 v.O ! / [+S.I.( }+|+1+: : 0 0 0 0 0 0 } } } } } 3 3.2.m.1.g.! }.n %.V l =                   ",
"                    _.!  .<.u.y.6 f.5.^.| ++I.2+}+}+}+}+:+: : 0 0 0 0 0 } } } } a a 8.) y.2.b.1.n.{.K Y M 3+6.4+              ",
"              - 5+v o.U < / P 7 e.d.l.}.n K >.o |+|+}+}+|+: : : : 0 0 0 0 } } } a a i e.t.+ 5.m.l }.| < T r 6+2 u             ",
"              7+: c r T %.[.1.) e.d.m.}.j.| h : :+1+}+8+9+: : : : : 0 0 0 } } } a a a 9.x.o.) 5.L n.c !.W F i }+8             ",
"              B.0 6+s V !.0.m.s.v.d.l.B 0.0.j : : : : : : : : : : : : 0 0 } } } a a a ` 0+$+o.7 2.P 0.=.Y N j o a+            ",
"              ,+: ~ F X K ].2.t.w.f.D P ^.a.0 0 : : : : : : : : : : : : 0 0 } } } a a i b+c+K.t.4.1.].;. .J q Q h.            ",
"              d+}+i G 3 >.^.5.e.>+e.4.b.k.(.0 0 0 0 : : : : : 1+|+1+: : 0 0 } } } a a } e+f+g+A + m.^.<.` J [ 6+@             ",
"              V.o i H Z ;.B c.v.3+,+s.4.5.a.} } 0 0 0 0 : : : 1+|+|+: : 0 0 } } a a a a 6.h+^+K.s.^ ^.<.` J [ W =             ",
"              - J j N Z ~.9.3.v.W.3+o.f.s.k.} } } } 0 0 0 : : : :+:+: : 0 } } a a a a } i+j+]+k+t.2.^.<.` M q <               ",
"                c q N  .~.B c.v.K.$+x.,+w.d.a a } } } } 0 0 : : : : 0 0 } } a a a a a s l+7+{ m+6 ^ }.-.Y N j '.              ",
"                4 j H Z ~.^.D e.K.I $+K.K.C.k a a a } } } } 0 0 0 0 0 } } a a a p p p [.d+n+o+1 6 m.8.K X F q 0+              ",
"                g U G Y -.}.^ f.B.L.L.L.k+m+[.a a a } } } } } } } } } } a a a p p p p p+i.l+o+m+f.1.z.&...s q+                ",
"                r+j s 3 K 8.L ) >+I 0+% 1 ;+I o a a a } } a a a a a a a a p p p p b U s+t+u+v+0+) ! n < U %.g                 ",
"                3+j ( W !.z.l 4.v.K.L.% g+p+w+^.a a a a a a a a a a p p p p p b b p A.x+y+5 6.B.3.^.-.Y H y.                  ",
"              .  .j q +.'.n 9.2.s.>+$+k+g+z+f+]+` } a a a a a a p p p p p p b b b l.8 s+> w c+e.b.(.!.V k W.                  ",
"            g E j j j J  .-.8.g.4.6 3+C.A+p+6.v+B+Y } a a a a p p p p p p b b b B C+x+q+$ f+W.O u.:.$.U [ C.                  ",
"          v I | q j j G h !.c 9.l.7 v.x.I g+D+]+w E+(.} a a p p p p p p b b 0 ,+F+G+r+5+v+k+d.b.8.K h G i B+                  ",
"              = ] j j ( T $.;.0.! ^ 7 6 >+L.E f+H+I+,.z+*.} p p p p b b : ^.J+a+y i.#.{ 1 e.2.B | < T r U #.                  ",
"                _.s j j H X ).| a.! l.y.d.,+C.;+7.h+j+4 J+K+$+m.}.B 4.& L+, y s+q+5+{ g+v.5.|.c !.h H j M+                    ",
"                  N+L j [ J Y !.:.0.n.1.D 7 e.W.c+f+o+O+7+l+P+d+y+r+Q+R+R+t+S+T+U+]+% 6 2.|.z.=. .U r y.=                     ",
"                    # ..j q S Y ).~.c ].u.L D p.A % ^+V+I+#+4 n+J+> W+> J+z K+{ p+B.+ b.9.[.=.` T k 3.g                       ",
"                    # J j j k S h < t ~.c a.n.g.D d.3+1 w+B+x I+X+j+X+E+{ 7.E K.d.^ |.8.:.t  .T F h q.                        ",
"                    Y+[ j j j s M ..3 ` %.=.:.{./.P 2.p.A I g+b+z+z+;+A+K.v.O b.u.8.n =.'.3 S F j y.                          ",
"                    z.j j j ~ ~ ( G M S ..X  .).-.j.a.u.b.c.7 d.f.f.) 4.l.! }.z.| n t 3 ..M s j Q t.                          ",
"                    7.q j j C Z+j r s k / c G U Y &.<.[.].`+9.u.P ! u./.(./ -.&.` d. @9 k q 6+o 0 c                           ",
"                    = $ A+,+].Z G j %  @= u Z s J X .@+@K @@;.<.| | <.>.!.9 Y V U b+= #+~ Q }+} a M -                         ",
"                                - v =       5.r F N #@S S T ..X 3 Y Z Y W T M k [ g+    $@: a p b _ 8                         ",
"                                            - F+v.G 3+%@}.,+..k G N M N G r j 6+Z+A+      &@=._ _ _ *@                        ",
"                                                  f       v X q q [ [ q i C Q }+0 a.-       U+b _ _ >                         ",
"                                                          E+j j j j i Z+o : 0 } a a u+        V+} _ 1.                        ",
"                                                          ^ ;+I+K j j i 0 a a a a a {.=         i.z.F g+=@- =                 ",
"                                                                v.j j j ~ A+N a a a k =             -@2.x.$ =@                ",
"                                                                I j j j >.  V.s a a r =                                       ",
"                                                              - j.$.g+K+;@    ] 6+a 9 =                                       ",
"                                                              ;+~.>@            R F [ @                                       ",
"                                                              y g                 ] a n+                                      ",
"                                                                                  u U <.=@                                    ",
"                                                                                    U+C o.=                                   ",
"                                                                                    = j+w                                     ",
"                                                                                                                              "};
