/* XPM */
static char *g_mario[] = {
/* columns rows colors chars-per-pixel */
"27 30 15 1 ",
"  c #000000",
". c #121218",
"X c #222222",
"o c #2E2724",
"O c #3A332E",
"+ c #4A372D",
"@ c #574336",
"# c #6B4A35",
"$ c #73513D",
"% c #725B4A",
"& c #875C44",
"* c #98694F",
"= c #A9A19A",
"- c #E0E5E7",
"; c #FFFFFF",
/* pixels */
"        XXXXXXXXX XXX      ",
"   XXXXXX&&*****XXXOX      ",
"   XoooX&&********OXX      ",
"   XXX@XO&*********XX      ",
"    XX$@oo&******&**X      ",
"    X##@+O+&****.***XX     ",
"   XX####=*&&&&.--***XX    ",
"   X####=---&+*----***X    ",
"  XX#$$#=-XX;**XX---**XX   ",
"  X#$$$$=-XX;**XX---***XX  ",
" XX$$$$$=----&**----****X  ",
" X$#$$$$=---*&**---*****XX ",
"XX####$&#===&****==*&&***X ",
"X$######$$##$$&&&&&#+-#**XX",
"X#####=#o++++OoO++++=-+***X",
"X@###o=-o&&&*************&X",
"X@@@##=*&&&&&&&&&&&&&***&XX",
"X$@@####################@X ",
"XX@@+++++@@@+++++++++++OXX ",
" XX@+++ooo@ooooooooooXXXX  ",
"  XXXXOOoo@%*%%%%%%XXXXX   ",
"     XXXX=**%%%%%%@@#$$$XX ",
"        X=**%%%%=@@@@#$@@X ",
"       XX=*%%%%*@@@@@@O$OX ",
"      XX+O*%%%%@@@OOo%%%X  ",
"     XX@@#$O@@oX@+oo@@@@X  ",
"     X@@@@$$ooXX@O.+O+XX   ",
"     X+@@@@@XXX Xo.OXXX    ",
"     X+OO++OX    XXX       ",
"     XXXXXXXX              "
};
